D:\Gebruiker\Documents\~school~\WTK\thesis\model\3dpredictsim_Lars\Results\Test_Lars\Test1_alphaCst_pas_GRF.mot
nRows=10
nColumns=19

name D:\Gebruiker\Documents\~school~\WTK\thesis\model\3dpredictsim_Lars\Results\Test_Lars\Test1_alphaCst_pas_GRF.mot
datacolumns 19
datarows 10
range 0.0000000000 0.0995546966
endheader
time 	ground_force_vx	ground_force_vy	ground_force_vz	ground_force_px	ground_force_py	ground_force_pz	1_ground_force_vx	1_ground_force_vy	1_ground_force_vz	1_ground_force_px	1_ground_force_py	1_ground_force_pz	ground_torque_x	ground_torque_y	ground_torque_z	1_ground_torque_x	1_ground_torque_y	1_ground_torque_z
        0.0000000000	      -64.1692063897	       50.3791808593	       20.0802541741	        0.1841579199	        0.0000000000	        0.0398214963	       99.7812918115	      564.8764128098	       -0.8562632278	       -0.3014895298	        0.0000000000	       -0.0387583656	        0.0000000000	        0.0000000000	        0.0000000000	        0.0000000000	        0.0000000000	        0.0000000000	
        0.0110616330	     -108.2336705272	      117.1635385620	       55.5433951819	        0.1920732385	        0.0000000000	        0.0375742833	       88.5370830110	      495.3525085947	       -3.7847032314	       -0.2989962088	        0.0000000000	       -0.0382316090	        0.0000000000	        0.0000000000	        0.0000000000	        0.0000000000	        0.0000000000	        0.0000000000	
        0.0221232659	      -39.1645241406	      236.9709117036	       32.8160062628	        0.1974039140	        0.0000000000	        0.0352706223	       74.4762430910	      412.0702685212	       -5.1002419821	       -0.2953047381	        0.0000000000	       -0.0371828605	        0.0000000000	        0.0000000000	        0.0000000000	        0.0000000000	        0.0000000000	        0.0000000000	
        0.0331848989	      -29.7763805537	      367.5075710463	        3.4722941005	        0.1996611778	        0.0000000000	        0.0345698188	       59.2736855864	      329.1013276604	       -3.3377146860	       -0.2899980331	        0.0000000000	       -0.0353352590	        0.0000000000	        0.0000000000	        0.0000000000	        0.0000000000	        0.0000000000	        0.0000000000	
        0.0442465318	      -47.5628891674	      489.8773753349	       -1.6689841495	        0.2028348462	        0.0000000000	        0.0352414296	       35.9151382752	      240.2352895879	       -4.3695524531	       -0.2813391747	        0.0000000000	       -0.0318736799	        0.0000000000	        0.0000000000	        0.0000000000	        0.0000000000	        0.0000000000	        0.0000000000	
        0.0553081648	      -76.7182020970	      629.0045540717	       -6.3497854505	        0.2101224020	        0.0000000000	        0.0375528754	       14.2582959167	      158.3503816179	       -9.2721956283	       -0.2668386268	        0.0000000000	       -0.0252770414	        0.0000000000	        0.0000000000	        0.0000000000	        0.0000000000	        0.0000000000	        0.0000000000	
        0.0663697978	      -96.1672351382	      734.4925314815	       -9.5867502261	        0.2161061964	        0.0000000000	        0.0393706811	        3.2158521765	      127.3097227925	      -11.8959205846	       -0.2627727558	        0.0000000000	       -0.0232163513	        0.0000000000	        0.0000000000	        0.0000000000	        0.0000000000	        0.0000000000	        0.0000000000	
        0.0774314307	     -100.8460333815	      781.1268269800	      -11.4618382223	        0.2204640971	        0.0000000000	        0.0405777969	        1.1446720688	       97.1519164450	      -13.0389231473	       -0.2622149010	        0.0000000000	       -0.0233387909	        0.0000000000	        0.0000000000	        0.0000000000	        0.0000000000	        0.0000000000	        0.0000000000	
        0.0884930637	      -96.9817223974	      786.4077418646	      -11.6458268814	        0.2237619903	        0.0000000000	        0.0413807088	       -3.2175536474	       61.8347266953	      -11.7164384590	       -0.2617804349	        0.0000000000	       -0.0233679818	        0.0000000000	        0.0000000000	        0.0000000000	        0.0000000000	        0.0000000000	        0.0000000000	
        0.0995546966	      -90.0486024009	      775.8924648140	      -11.7503390975	        0.2265775698	        0.0000000000	        0.0418972114	       -8.4370090933	       24.3721697781	       -5.4622780703	       -0.2621872178	        0.0000000000	       -0.0229756043	        0.0000000000	        0.0000000000	        0.0000000000	        0.0000000000	        0.0000000000	        0.0000000000	
